<?xml version="1.0" standalone="no"?>
<!DOCTYPE svg PUBLIC "-//W3C//DTD SVG 20010904//EN"
 "http://www.w3.org/TR/2001/REC-SVG-20010904/DTD/svg10.dtd">
<svg version="1.0" xmlns="http://www.w3.org/2000/svg"
 width="1125.000000pt" height="1125.000000pt" viewBox="0 0 1125.000000 1125.000000"
 preserveAspectRatio="xMidYMid meet">
<metadata>
Created by potrace 1.11, written by Peter Selinger 2001-2013
</metadata>
<g transform="translate(0.000000,1125.000000) scale(0.100000,-0.100000)"
fill="#000000" stroke="none">
<path d="M0 5641 l0 -5609 1663 -6 c914 -3 3289 -8 5277 -11 1988 -3 3769 -8
3958 -11 l342 -7 0 5627 0 5626 -5620 0 -5620 0 0 -5609z m9199 4438 c72 -16
150 -60 205 -115 169 -169 167 -434 -5 -606 -46 -46 -50 -58 -22 -58 13 0 40
-11 143 -58 37 -17 137 -78 157 -96 6 -6 36 -33 66 -59 31 -27 79 -77 109
-112 l53 -65 258 0 257 0 0 -192 0 -193 38 65 c70 120 195 236 329 303 113 58
298 87 406 64 l37 -8 0 -275 0 -276 -77 8 c-251 25 -412 -16 -533 -136 -66
-65 -112 -149 -142 -257 -21 -75 -22 -101 -28 -658 l-5 -580 -276 -3 -277 -2
-35 -43 c-84 -101 -180 -184 -271 -236 -31 -18 -56 -38 -56 -46 0 -13 179
-687 604 -2270 376 -1405 730 -2731 826 -3100 50 -192 93 -358 96 -367 5 -17
-242 -18 -5088 -18 -4998 0 -5092 0 -5073 19 46 44 1239 966 6130 4736 627
483 1210 933 1294 999 85 67 160 124 165 128 6 4 -6 23 -29 45 -121 116 -204
238 -271 401 l-17 43 -41 -39 c-196 -188 -441 -285 -751 -298 -415 -19 -771
138 -964 425 -234 345 -265 865 -76 1246 67 137 136 228 234 312 174 149 376
230 630 254 345 32 668 -70 909 -286 29 -26 55 -45 58 -43 2 3 14 32 25 64 20
56 40 93 116 212 32 48 169 194 220 234 36 28 126 83 163 100 103 47 130 58
143 58 29 0 25 14 -16 50 -113 100 -162 271 -121 425 56 218 283 355 503 304z
m-3621 -851 l2 -318 213 -2 212 -3 0 -195 0 -195 -212 -3 -213 -2 0 -568 c0
-377 4 -580 11 -607 26 -96 91 -121 291 -113 l128 6 -2 -226 -3 -226 -45 -9
c-88 -16 -457 -12 -557 6 -181 33 -295 102 -357 217 -56 103 -56 98 -56 838
l0 682 -180 0 -180 0 0 200 0 200 180 0 180 0 0 320 0 320 293 -2 292 -3 3
-317z m-1908 -284 c295 -53 555 -258 694 -549 78 -163 114 -321 123 -537 l6
-158 -773 0 -773 0 7 -67 c25 -250 135 -396 337 -450 97 -25 275 -23 358 6
115 40 227 130 268 216 l17 35 258 0 c142 0 258 -2 258 -5 0 -17 -58 -153 -95
-222 -135 -254 -332 -399 -633 -465 -128 -28 -394 -31 -523 -5 -542 108 -860
545 -836 1147 14 334 119 576 343 790 247 236 590 330 964 264z m-2192 -3
c208 -43 362 -156 442 -322 47 -98 76 -221 90 -381 11 -130 14 -1455 3 -1461
-5 -2 -137 -2 -295 1 l-287 4 -4 687 c-4 747 -3 741 -63 866 -55 117 -170 172
-343 163 -254 -14 -375 -143 -411 -438 -6 -49 -10 -337 -10 -682 l0 -598 -290
0 -290 0 0 1060 0 1060 193 0 c105 0 229 3 275 7 l82 6 0 -152 c0 -83 4 -151
8 -151 5 0 23 22 41 49 80 124 253 238 426 280 110 27 306 28 433 2z"/>
<path d="M7186 8504 c-170 -41 -305 -189 -350 -385 -37 -159 -38 -397 -1 -554
65 -283 280 -435 561 -396 281 40 434 276 434 671 0 196 -40 362 -116 475
-109 165 -319 240 -528 189z"/>
<path d="M3311 8509 c-64 -12 -162 -61 -211 -105 -78 -71 -130 -171 -145 -281
l-7 -53 471 0 c540 0 487 -13 450 106 -62 200 -162 303 -324 333 -68 13 -170
13 -234 0z"/>
</g>
</svg>
